<svg width="192" height="45" viewBox="0 0 192 45" fill="none" xmlns="http://www.w3.org/2000/svg"><path d="M19.79 21.13l-16.37.572.19 5.469 5.541-.194.468 13.384 5.288-.185-.467-13.384 5.54-.193-.19-5.469zm20.146 8.77c-.183-5.252-4.09-9.87-9.74-9.673-6.044.21-9.696 4.949-9.508 10.346.214 6.116 4.808 9.774 10.6 9.572 3.454-.121 6.178-1.549 7.473-3.683l-1.833-4.007c-1.026 1.585-3.408 2.46-5.675 2.54-2.483.086-4.493-.744-5.067-2.741l13.708-.479c.057-.434.064-1.263.042-1.874zm-13.78-1.607c.404-1.852 2.171-2.814 4.222-2.886 2.014-.07 3.737.77 4.16 2.593l-8.382.293zm25.274 5.529c-2.986.104-5.027-1.626-5.117-4.18-.089-2.555 1.827-4.423 4.813-4.527 2.447-.085 4.285.967 5.226 2.123l1.39-4.551c-1.289-1.828-4.005-3.282-7.28-3.168-5.288.185-9.715 4.41-9.51 10.31.207 5.9 4.918 9.806 10.207 9.622 3.274-.115 5.958-1.65 7.185-3.637l-1.816-4.548a6.76 6.76 0 0 1-5.098 2.556zm23.254-14.609l-16.37.572.191 5.469 5.54-.194.468 13.384 5.289-.185-.467-13.384 5.54-.193-.19-5.469zm1.808 6.601l.152 4.354 12.16-.425-.151-4.353-12.16.424zm13.364 6.27l.366 10.47 5.216-.183-.174-5 11.009-.385.175 5 5.145-.179-.366-10.47-2.447.086-.467-13.384-14.211.496.051 1.475c.185 5.29-.86 9.432-2.39 12.007l-1.907.067zm7.34-.257c1.046-2.017 1.53-4.628 1.774-7.986l4.245-.149.277 7.916-6.297.22zm21.334 2.786c.695 1.344 2.785 2.388 5.519 2.292 4.965-.173 9.286-4.358 9.078-10.295-.207-5.936-4.809-9.81-9.774-9.636-2.95.102-4.926 1.288-5.526 2.678l-.068-1.943-5.109.179.926 26.515 5.289-.184-.335-9.606zm-.338-9.678c.497-1.243 2.299-2.242 4.458-2.317 2.914-.102 5.029 1.661 5.117 4.18.088 2.518-1.899 4.424-4.813 4.526-2.159.076-4.027-.796-4.609-2l-.153-4.39zm27.517 5.162c-.335.732-1.429 1.383-2.94 1.436-1.942.068-3.154-.575-3.195-1.762-.038-1.08.942-1.906 3.101-1.981 1.547-.054 2.718.481 2.988.976l.046 1.331zm-9.507-6.116c1.002-1.223 3.236-2.238 5.538-2.318 2.015-.07 3.7.735 3.769 2.714l.018.504c-.191-.318-1.445-1.139-4.215-1.042-3.706.13-7.227 2.45-7.086 6.48.132 3.777 3.167 6.12 6.837 5.992 1.979-.069 4.111-.9 4.962-2.334l.056 1.619 5.109-.179-.411-11.765c-.169-4.857-3.648-7.509-8.613-7.335-2.806.098-6.183 1.404-7.336 3.462l1.372 4.202zm17.648-7.532l.658 18.852 5.253-.183 7.302-10.593.361 10.325 5.181-.18-.658-18.853-5.253.183-7.338 10.63-.362-10.36-5.144.179zm8.935-2.005c3.49-.122 6.355-2.672 6.235-6.09l-4.193-.43c-.062 1.336-.818 2.37-2.185 2.418-1.367.048-2.194-.932-2.349-2.26l-4.153.722c.119 3.418 3.155 5.762 6.645 5.64zm12.595 1.253l.659 18.853 8.238-.288c3.778-.132 7.128-2.194 6.99-6.152-.073-2.087-1.199-3.38-2.491-4.272.691-.852 1.206-1.59 1.153-3.102-.136-3.885-3.432-5.427-7.281-5.293l-7.268.254zm5.495 13.965l-.098-2.806 3.814-.134a1.418 1.418 0 0 1 1.524 1.352c.029.827-.599 1.426-1.39 1.453l-3.85.135zm-.234-6.692l-.095-2.735 2.698-.094c1.151-.04 1.645.7 1.667 1.31.025.72-.492 1.387-1.535 1.423l-2.735.096z" fill="url(#a)"/><path d="M17.775 18.15l-16.37.572.19 5.469 5.541-.194.468 13.384 5.288-.185-.467-13.383 5.54-.194-.19-5.469zm20.147 8.77c-.184-5.252-4.091-9.87-9.74-9.673-6.044.21-9.697 4.95-9.509 10.346.214 6.116 4.808 9.774 10.6 9.572 3.455-.121 6.179-1.549 7.473-3.683l-1.833-4.007c-1.025 1.585-3.408 2.46-5.675 2.54-2.482.087-4.493-.744-5.067-2.741l13.708-.479c.057-.434.064-1.263.043-1.874zM24.14 25.314c.404-1.852 2.171-2.814 4.222-2.886 2.015-.07 3.737.77 4.16 2.593l-8.382.293zm25.275 5.529c-2.987.104-5.028-1.626-5.117-4.18-.09-2.554 1.826-4.423 4.812-4.527 2.447-.085 4.285.967 5.226 2.123l1.39-4.551c-1.289-1.828-4.005-3.282-7.28-3.168-5.288.185-9.715 4.41-9.51 10.31.207 5.9 4.918 9.807 10.207 9.622 3.274-.115 5.958-1.65 7.185-3.637l-1.816-4.548a6.76 6.76 0 0 1-5.097 2.556zm23.253-14.609l-16.37.572.191 5.469 5.541-.194.467 13.384 5.29-.185-.468-13.383 5.54-.194-.19-5.469zm1.808 6.601l.152 4.354 12.16-.425-.151-4.353-12.16.424zm13.364 6.27l.366 10.47 5.217-.183-.175-5 11.009-.385.175 5 5.145-.179-.366-10.47-2.446.086-.468-13.384-14.211.496.051 1.475c.185 5.29-.859 9.432-2.39 12.007l-1.907.067zm7.34-.256c1.046-2.018 1.531-4.629 1.774-7.987l4.245-.149.277 7.916-6.296.22zm21.334 2.785c.695 1.344 2.785 2.388 5.519 2.292 4.965-.173 9.286-4.358 9.078-10.295-.207-5.936-4.809-9.81-9.774-9.636-2.95.103-4.926 1.288-5.526 2.678l-.068-1.943-5.108.179.925 26.515 5.289-.184-.335-9.606zm-.338-9.678c.497-1.243 2.299-2.242 4.458-2.317 2.914-.102 5.029 1.661 5.117 4.18.088 2.518-1.899 4.424-4.813 4.526-2.159.076-4.026-.796-4.609-2l-.153-4.39zm27.517 5.162c-.335.732-1.428 1.383-2.94 1.436-1.942.068-3.154-.575-3.195-1.762-.038-1.08.942-1.906 3.101-1.981 1.547-.054 2.718.481 2.988.976l.046 1.331zm-9.507-6.116c1.002-1.223 3.236-2.238 5.538-2.318 2.015-.07 3.7.735 3.769 2.714l.018.504c-.191-.318-1.445-1.139-4.215-1.042-3.706.13-7.227 2.45-7.086 6.48.132 3.777 3.167 6.12 6.837 5.992 1.979-.069 4.111-.9 4.962-2.334l.056 1.619 5.109-.179-.411-11.765c-.169-4.857-3.648-7.509-8.613-7.335-2.806.098-6.183 1.404-7.336 3.462L134.187 21zm17.648-7.532l.658 18.852 5.253-.183 7.303-10.593.36 10.325 5.181-.18-.658-18.853-5.253.183-7.338 10.63-.361-10.36-5.145.179zm8.935-2.005c3.49-.122 6.355-2.672 6.235-6.09l-4.193-.43c-.062 1.336-.818 2.37-2.185 2.418-1.367.048-2.194-.932-2.348-2.26l-4.154.722c.12 3.418 3.155 5.762 6.645 5.64zm12.595 1.253l.659 18.852 8.239-.287c3.777-.132 7.127-2.194 6.989-6.152-.073-2.087-1.199-3.38-2.49-4.271.69-.853 1.205-1.592 1.152-3.103-.136-3.885-3.432-5.427-7.281-5.293l-7.268.254zm5.495 13.965l-.098-2.806 3.814-.134a1.418 1.418 0 0 1 1.524 1.352c.029.827-.599 1.426-1.39 1.453l-3.85.135zm-.234-6.692l-.095-2.734 2.698-.095c1.151-.04 1.646.7 1.667 1.31.025.72-.492 1.387-1.535 1.423l-2.735.096z" fill="#fff"/><defs><linearGradient id="a" x1="189.9" y1="3.047" x2="2.015" y2="9.608" gradientUnits="userSpaceOnUse"><stop stop-color="#2882DB"/><stop offset=".2" stop-color="#7B71D3"/><stop offset=".4" stop-color="#AE5BBB"/><stop offset=".6" stop-color="#CF4294"/><stop offset=".8" stop-color="#DD3266"/><stop offset="1" stop-color="#D73B35"/></linearGradient></defs></svg>